<mxfile host="app.diagrams.net" modified="2022-08-16T13:25:48.782Z" agent="5.0 (Macintosh; Intel Mac OS X 10_15_7) AppleWebKit/537.36 (KHTML, like Gecko) Chrome/104.0.5112.79 Safari/537.36" etag="n8XZ03uyvN6J8SnuzSXi" version="20.2.4" type="github">
  <diagram id="70qcAEuOuoQapVDsrkia" name="第 1 页">
    <mxGraphModel dx="1377" dy="753" grid="1" gridSize="10" guides="1" tooltips="1" connect="1" arrows="1" fold="1" page="1" pageScale="1" pageWidth="827" pageHeight="1169" math="0" shadow="0">
      <root>
        <mxCell id="0" />
        <mxCell id="1" parent="0" />
        <mxCell id="MkmLWFJ0nCZ0MtmxEOAC-1" value="ExprAST" style="swimlane;fontStyle=0;childLayout=stackLayout;horizontal=1;startSize=30;horizontalStack=0;resizeParent=1;resizeParentMax=0;resizeLast=0;collapsible=1;marginBottom=0;" vertex="1" parent="1">
          <mxGeometry x="520" y="410" width="140" height="60" as="geometry" />
        </mxCell>
        <mxCell id="MkmLWFJ0nCZ0MtmxEOAC-23" style="edgeStyle=orthogonalEdgeStyle;rounded=0;orthogonalLoop=1;jettySize=auto;html=1;endArrow=block;endFill=0;" edge="1" parent="1" source="MkmLWFJ0nCZ0MtmxEOAC-5">
          <mxGeometry relative="1" as="geometry">
            <mxPoint x="540" y="470" as="targetPoint" />
            <Array as="points">
              <mxPoint x="330" y="520" />
              <mxPoint x="540" y="520" />
            </Array>
          </mxGeometry>
        </mxCell>
        <mxCell id="MkmLWFJ0nCZ0MtmxEOAC-5" value="NumberExprAST" style="swimlane;fontStyle=0;childLayout=stackLayout;horizontal=1;startSize=30;horizontalStack=0;resizeParent=1;resizeParentMax=0;resizeLast=0;collapsible=1;marginBottom=0;" vertex="1" parent="1">
          <mxGeometry x="260" y="570" width="140" height="60" as="geometry" />
        </mxCell>
        <mxCell id="MkmLWFJ0nCZ0MtmxEOAC-6" value="double Val" style="text;strokeColor=none;fillColor=none;align=left;verticalAlign=middle;spacingLeft=4;spacingRight=4;overflow=hidden;points=[[0,0.5],[1,0.5]];portConstraint=eastwest;rotatable=0;" vertex="1" parent="MkmLWFJ0nCZ0MtmxEOAC-5">
          <mxGeometry y="30" width="140" height="30" as="geometry" />
        </mxCell>
        <mxCell id="MkmLWFJ0nCZ0MtmxEOAC-24" style="edgeStyle=orthogonalEdgeStyle;rounded=0;orthogonalLoop=1;jettySize=auto;html=1;exitX=0.5;exitY=0;exitDx=0;exitDy=0;endArrow=block;endFill=0;" edge="1" parent="1" source="MkmLWFJ0nCZ0MtmxEOAC-7">
          <mxGeometry relative="1" as="geometry">
            <mxPoint x="570" y="470" as="targetPoint" />
            <Array as="points">
              <mxPoint x="500" y="540" />
              <mxPoint x="570" y="540" />
            </Array>
          </mxGeometry>
        </mxCell>
        <mxCell id="MkmLWFJ0nCZ0MtmxEOAC-7" value="VariableExprAST" style="swimlane;fontStyle=0;childLayout=stackLayout;horizontal=1;startSize=30;horizontalStack=0;resizeParent=1;resizeParentMax=0;resizeLast=0;collapsible=1;marginBottom=0;" vertex="1" parent="1">
          <mxGeometry x="430" y="570" width="140" height="60" as="geometry" />
        </mxCell>
        <mxCell id="MkmLWFJ0nCZ0MtmxEOAC-8" value="string Name" style="text;strokeColor=none;fillColor=none;align=left;verticalAlign=middle;spacingLeft=4;spacingRight=4;overflow=hidden;points=[[0,0.5],[1,0.5]];portConstraint=eastwest;rotatable=0;" vertex="1" parent="MkmLWFJ0nCZ0MtmxEOAC-7">
          <mxGeometry y="30" width="140" height="30" as="geometry" />
        </mxCell>
        <mxCell id="MkmLWFJ0nCZ0MtmxEOAC-25" style="edgeStyle=orthogonalEdgeStyle;rounded=0;orthogonalLoop=1;jettySize=auto;html=1;exitX=0.5;exitY=0;exitDx=0;exitDy=0;endArrow=block;endFill=0;" edge="1" parent="1" source="MkmLWFJ0nCZ0MtmxEOAC-9">
          <mxGeometry relative="1" as="geometry">
            <mxPoint x="600" y="470" as="targetPoint" />
            <Array as="points">
              <mxPoint x="680" y="540" />
              <mxPoint x="600" y="540" />
            </Array>
          </mxGeometry>
        </mxCell>
        <mxCell id="MkmLWFJ0nCZ0MtmxEOAC-9" value="BinaryExprAST" style="swimlane;fontStyle=0;childLayout=stackLayout;horizontal=1;startSize=30;horizontalStack=0;resizeParent=1;resizeParentMax=0;resizeLast=0;collapsible=1;marginBottom=0;" vertex="1" parent="1">
          <mxGeometry x="600" y="570" width="160" height="120" as="geometry" />
        </mxCell>
        <mxCell id="MkmLWFJ0nCZ0MtmxEOAC-10" value="char op" style="text;strokeColor=none;fillColor=none;align=left;verticalAlign=middle;spacingLeft=4;spacingRight=4;overflow=hidden;points=[[0,0.5],[1,0.5]];portConstraint=eastwest;rotatable=0;" vertex="1" parent="MkmLWFJ0nCZ0MtmxEOAC-9">
          <mxGeometry y="30" width="160" height="30" as="geometry" />
        </mxCell>
        <mxCell id="MkmLWFJ0nCZ0MtmxEOAC-14" value="unique_ptr&lt;ExprAST&gt; LHS" style="text;strokeColor=none;fillColor=none;align=left;verticalAlign=middle;spacingLeft=4;spacingRight=4;overflow=hidden;points=[[0,0.5],[1,0.5]];portConstraint=eastwest;rotatable=0;" vertex="1" parent="MkmLWFJ0nCZ0MtmxEOAC-9">
          <mxGeometry y="60" width="160" height="30" as="geometry" />
        </mxCell>
        <mxCell id="MkmLWFJ0nCZ0MtmxEOAC-18" value="unique_ptr&lt;ExprAST&gt; RHS" style="text;strokeColor=none;fillColor=none;align=left;verticalAlign=middle;spacingLeft=4;spacingRight=4;overflow=hidden;points=[[0,0.5],[1,0.5]];portConstraint=eastwest;rotatable=0;" vertex="1" parent="MkmLWFJ0nCZ0MtmxEOAC-9">
          <mxGeometry y="90" width="160" height="30" as="geometry" />
        </mxCell>
        <mxCell id="MkmLWFJ0nCZ0MtmxEOAC-26" style="edgeStyle=orthogonalEdgeStyle;rounded=0;orthogonalLoop=1;jettySize=auto;html=1;endArrow=block;endFill=0;" edge="1" parent="1" source="MkmLWFJ0nCZ0MtmxEOAC-19">
          <mxGeometry relative="1" as="geometry">
            <mxPoint x="630" y="470" as="targetPoint" />
            <Array as="points">
              <mxPoint x="890" y="520" />
              <mxPoint x="630" y="520" />
            </Array>
          </mxGeometry>
        </mxCell>
        <mxCell id="MkmLWFJ0nCZ0MtmxEOAC-19" value="CallExprAST" style="swimlane;fontStyle=0;childLayout=stackLayout;horizontal=1;startSize=30;horizontalStack=0;resizeParent=1;resizeParentMax=0;resizeLast=0;collapsible=1;marginBottom=0;" vertex="1" parent="1">
          <mxGeometry x="790" y="570" width="210" height="90" as="geometry" />
        </mxCell>
        <mxCell id="MkmLWFJ0nCZ0MtmxEOAC-20" value="string Callee" style="text;strokeColor=none;fillColor=none;align=left;verticalAlign=middle;spacingLeft=4;spacingRight=4;overflow=hidden;points=[[0,0.5],[1,0.5]];portConstraint=eastwest;rotatable=0;" vertex="1" parent="MkmLWFJ0nCZ0MtmxEOAC-19">
          <mxGeometry y="30" width="210" height="30" as="geometry" />
        </mxCell>
        <mxCell id="MkmLWFJ0nCZ0MtmxEOAC-21" value="vector&lt;unique_ptr&lt;ExprAST&gt;&gt; Args" style="text;strokeColor=none;fillColor=none;align=left;verticalAlign=middle;spacingLeft=4;spacingRight=4;overflow=hidden;points=[[0,0.5],[1,0.5]];portConstraint=eastwest;rotatable=0;" vertex="1" parent="MkmLWFJ0nCZ0MtmxEOAC-19">
          <mxGeometry y="60" width="210" height="30" as="geometry" />
        </mxCell>
        <mxCell id="MkmLWFJ0nCZ0MtmxEOAC-27" value="FunctionAST" style="swimlane;fontStyle=0;childLayout=stackLayout;horizontal=1;startSize=30;horizontalStack=0;resizeParent=1;resizeParentMax=0;resizeLast=0;collapsible=1;marginBottom=0;" vertex="1" parent="1">
          <mxGeometry x="150" y="350" width="190" height="90" as="geometry" />
        </mxCell>
        <mxCell id="MkmLWFJ0nCZ0MtmxEOAC-28" value="unique_ptr&lt;PrototypeAST&gt; Proto" style="text;strokeColor=none;fillColor=none;align=left;verticalAlign=middle;spacingLeft=4;spacingRight=4;overflow=hidden;points=[[0,0.5],[1,0.5]];portConstraint=eastwest;rotatable=0;" vertex="1" parent="MkmLWFJ0nCZ0MtmxEOAC-27">
          <mxGeometry y="30" width="190" height="30" as="geometry" />
        </mxCell>
        <mxCell id="MkmLWFJ0nCZ0MtmxEOAC-29" value="unique_ptr&lt;ExprAST&gt; Body" style="text;strokeColor=none;fillColor=none;align=left;verticalAlign=middle;spacingLeft=4;spacingRight=4;overflow=hidden;points=[[0,0.5],[1,0.5]];portConstraint=eastwest;rotatable=0;" vertex="1" parent="MkmLWFJ0nCZ0MtmxEOAC-27">
          <mxGeometry y="60" width="190" height="30" as="geometry" />
        </mxCell>
        <mxCell id="MkmLWFJ0nCZ0MtmxEOAC-30" value="PrototypeAST" style="swimlane;fontStyle=0;childLayout=stackLayout;horizontal=1;startSize=30;horizontalStack=0;resizeParent=1;resizeParentMax=0;resizeLast=0;collapsible=1;marginBottom=0;" vertex="1" parent="1">
          <mxGeometry x="405" y="280" width="190" height="90" as="geometry" />
        </mxCell>
        <mxCell id="MkmLWFJ0nCZ0MtmxEOAC-31" value="string Name" style="text;strokeColor=none;fillColor=none;align=left;verticalAlign=middle;spacingLeft=4;spacingRight=4;overflow=hidden;points=[[0,0.5],[1,0.5]];portConstraint=eastwest;rotatable=0;" vertex="1" parent="MkmLWFJ0nCZ0MtmxEOAC-30">
          <mxGeometry y="30" width="190" height="30" as="geometry" />
        </mxCell>
        <mxCell id="MkmLWFJ0nCZ0MtmxEOAC-32" value="unique_ptr&lt;String&gt; Args" style="text;strokeColor=none;fillColor=none;align=left;verticalAlign=middle;spacingLeft=4;spacingRight=4;overflow=hidden;points=[[0,0.5],[1,0.5]];portConstraint=eastwest;rotatable=0;" vertex="1" parent="MkmLWFJ0nCZ0MtmxEOAC-30">
          <mxGeometry y="60" width="190" height="30" as="geometry" />
        </mxCell>
      </root>
    </mxGraphModel>
  </diagram>
</mxfile>
